<svg version="1.1" id="Layer_1" xmlns="http://www.w3.org/2000/svg" xmlns:xlink="http://www.w3.org/1999/xlink" x="0px" y="0px"
	 width="100%" viewBox="0 0 53 57" enable-background="new 0 0 53 57" xml:space="preserve">
<path fill="#064173" opacity="1.000000" stroke="none" 
	d="
M30.000074,58.000000 
	C20.000057,58.000000 10.500057,58.000000 1.000043,58.000000 
	C1.000029,39.000019 1.000029,20.000038 1.000014,1.000043 
	C18.666647,1.000029 36.333294,1.000029 53.999954,1.000014 
	C53.999969,19.999981 53.999969,38.999962 53.999985,57.999969 
	C46.166698,58.000000 38.333393,58.000000 30.000074,58.000000 
M6.494932,9.130468 
	C6.396758,9.418373 6.298584,9.706278 6.077579,10.924960 
	C6.056947,20.742542 5.853569,30.565611 6.148008,40.373737 
	C6.218972,42.737648 7.431601,45.485786 8.992248,47.310566 
	C14.377736,53.607521 21.701584,51.924717 28.641125,51.798618 
	C28.641125,49.007278 28.641125,46.623405 28.641125,43.999741 
	C25.141050,43.999741 21.977781,43.791595 18.852810,44.048794 
	C14.229218,44.429325 13.969144,42.154209 14.117059,38.276562 
	C14.481991,28.709715 14.236671,19.119593 14.236671,9.166534 
	C11.883193,9.166534 9.441910,9.166534 6.494932,9.130468 
M40.162464,51.280956 
	C40.451782,51.197590 40.741096,51.114227 41.934330,51.003403 
	C44.200562,51.003403 46.466793,51.003403 48.998573,51.003403 
	C48.998573,41.481979 49.227066,32.508961 48.934101,23.552996 
	C48.643024,14.654761 44.884411,9.819550 37.507328,9.123850 
	C31.780630,8.583790 25.962252,9.015910 20.233215,9.015910 
	C19.755877,16.999062 19.755877,16.999252 27.069796,16.999935 
	C31.358267,17.000334 35.646740,17.000008 40.371086,17.000008 
	C40.371086,28.600788 40.371086,39.716209 40.162464,51.280956 
z"/>
<path fill="#FFFFFF" opacity="1.000000" stroke="none" 
	d="
M40.371086,50.831627 
	C40.371086,39.716209 40.371086,28.600788 40.371086,17.000008 
	C35.646740,17.000008 31.358267,17.000334 27.069796,16.999935 
	C19.755877,16.999252 19.755877,16.999062 20.233215,9.015910 
	C25.962252,9.015910 31.780630,8.583790 37.507328,9.123850 
	C44.884411,9.819550 48.643024,14.654761 48.934101,23.552996 
	C49.227066,32.508961 48.998573,41.481979 48.998573,51.003403 
	C46.466793,51.003403 44.200562,51.003403 41.344597,50.877785 
	C40.754864,50.752171 40.371086,50.831627 40.371086,50.831627 
z"/>
<path fill="#EE9C38" opacity="1.000000" stroke="none" 
	d="
M7.000627,9.166534 
	C9.441910,9.166534 11.883193,9.166534 14.236671,9.166534 
	C14.236671,19.119593 14.481991,28.709715 14.117059,38.276562 
	C13.969144,42.154209 14.229218,44.429325 18.852810,44.048794 
	C21.977781,43.791595 25.141050,43.999741 28.641125,43.999741 
	C28.641125,46.623405 28.641125,49.007278 28.641125,51.798618 
	C21.701584,51.924717 14.377736,53.607521 8.992248,47.310566 
	C7.431601,45.485786 6.218972,42.737648 6.148008,40.373737 
	C5.853569,30.565611 6.056947,20.742542 6.296652,10.346684 
	C6.710872,9.594784 6.872506,9.394159 7.000627,9.166534 
z"/>
<path fill="#D9933E" opacity="1.000000" stroke="none" 
	d="
M6.747779,9.148501 
	C6.872506,9.394159 6.710872,9.594784 6.358068,9.881294 
	C6.298584,9.706278 6.396758,9.418373 6.747779,9.148501 
z"/>
<path fill="#A0B7CA" opacity="1.000000" stroke="none" 
	d="
M40.266777,51.056290 
	C40.371086,50.831627 40.754864,50.752171 40.892639,50.891518 
	C40.741096,51.114227 40.451782,51.197590 40.266777,51.056290 
z"/>
</svg>